<?xml version="1.0" encoding="utf-8" standalone="no"?>
<!DOCTYPE svg PUBLIC "-//W3C//DTD SVG 1.1//EN"
  "http://www.w3.org/Graphics/SVG/1.1/DTD/svg11.dtd">
<svg xmlns:xlink="http://www.w3.org/1999/xlink" width="814.79952pt" height="232.44976pt" viewBox="0 0 814.79952 232.44976" xmlns="http://www.w3.org/2000/svg" version="1.1">
 <metadata>
  <rdf:RDF xmlns:dc="http://purl.org/dc/elements/1.1/" xmlns:cc="http://creativecommons.org/ns#" xmlns:rdf="http://www.w3.org/1999/02/22-rdf-syntax-ns#">
   <cc:Work>
    <dc:type rdf:resource="http://purl.org/dc/dcmitype/StillImage"/>
    <dc:date>2026-10-07T23:00:33.090840</dc:date>
    <dc:format>image/svg+xml</dc:format>
    <dc:creator>
     <cc:Agent>
      <dc:title>Matplotlib v3.10.9, https://matplotlib.org/</dc:title>
     </cc:Agent>
    </dc:creator>
   </cc:Work>
  </rdf:RDF>
 </metadata>
 <defs>
  <style type="text/css">*{stroke-linejoin: round; stroke-linecap: butt}</style>
 </defs>
 <g id="figure_1">
  <g id="patch_1">
   <path d="M 0 232.44976 
L 814.79952 232.44976 
L 814.79952 0 
L 0 0 
z
" style="fill: #ffffff"/>
  </g>
  <g id="axes_1">
   <g id="patch_2">
    <path d="M 47.070156 192.307916 
L 807.59952 192.307916 
L 807.59952 36.898298 
L 47.070156 36.898298 
z
" style="fill: #ffffff"/>
   </g>
   <g id="matplotlib.axis_1">
    <g id="xtick_1">
     <g id="line2d_1">
      <defs>
       <path id="ma22dc1e2c1" d="M 0 0 
L 0 3.5 
" style="stroke: #000000; stroke-width: 0.8"/>
      </defs>
      <g>
       <use xlink:href="#ma22dc1e2c1" x="108.091282" y="192.307916" style="stroke: #000000; stroke-width: 0.8"/>
      </g>
     </g>
     <g id="text_1">
      <!-- 0→54 -->
      <g transform="translate(92.225774 208.500729) scale(0.115 -0.115)">
       <defs>
        <path id="MicrosoftYaHei-30" d="M 284 2325 
Q 284 3606 709 4264 
Q 1134 4922 1941 4922 
Q 3478 4922 3478 2441 
Q 3478 1216 3045 567 
Q 2613 -81 1831 -81 
Q 1094 -81 689 534 
Q 284 1150 284 2325 
z
M 909 2353 
Q 909 425 1888 425 
Q 2850 425 2850 2384 
Q 2850 4413 1906 4413 
Q 909 4413 909 2353 
z
" transform="scale(0.015625)"/>
        <path id="MicrosoftYaHei-2192" d="M 4859 3766 
Q 5241 3344 5514 3125 
Q 5788 2906 6150 2713 
L 6150 2572 
Q 5788 2381 5517 2164 
Q 5247 1947 4859 1519 
L 4622 1519 
Q 4766 1822 4866 1983 
Q 4966 2144 5141 2369 
L 247 2369 
L 247 2916 
L 5141 2916 
Q 4972 3131 4869 3298 
Q 4766 3466 4622 3766 
L 4859 3766 
z
" transform="scale(0.015625)"/>
        <path id="MicrosoftYaHei-35" d="M 3294 1494 
Q 3294 784 2823 350 
Q 2353 -84 1559 -84 
Q 878 -84 544 119 
L 544 744 
Q 1034 425 1544 425 
Q 2050 425 2361 704 
Q 2672 984 2672 1447 
Q 2672 1909 2348 2167 
Q 2025 2425 1434 2425 
Q 978 2425 613 2384 
L 791 4841 
L 3053 4841 
L 3053 4303 
L 1306 4303 
L 1206 2931 
L 1647 2950 
Q 2416 2950 2855 2567 
Q 3294 2184 3294 1494 
z
" transform="scale(0.015625)"/>
        <path id="MicrosoftYaHei-34" d="M 2906 4841 
L 2906 1644 
L 3631 1644 
L 3631 1138 
L 2906 1138 
L 2906 0 
L 2313 0 
L 2313 1138 
L 53 1138 
L 53 1616 
Q 656 2294 1265 3178 
Q 1875 4063 2272 4841 
L 2906 4841 
z
M 741 1644 
L 2313 1644 
L 2313 3950 
Q 1988 3366 1616 2817 
Q 1244 2269 741 1644 
z
" transform="scale(0.015625)"/>
       </defs>
       <use xlink:href="#MicrosoftYaHei-30"/>
       <use xlink:href="#MicrosoftYaHei-2192" transform="translate(58.642578 0)"/>
       <use xlink:href="#MicrosoftYaHei-35" transform="translate(158.642578 0)"/>
       <use xlink:href="#MicrosoftYaHei-34" transform="translate(217.285156 0)"/>
      </g>
      <!-- 背景块 1→2 -->
      <g transform="translate(76.645969 222.390932) scale(0.115 -0.115)">
       <defs>
        <path id="MicrosoftYaHei-80cc" d="M 1488 -809 
L 994 -809 
L 994 2628 
L 5419 2628 
L 5419 -9 
Q 5419 -772 4588 -772 
Q 4025 -772 3356 -747 
Q 3319 -528 3256 -241 
Q 3869 -284 4488 -284 
Q 4925 -291 4925 91 
L 4925 384 
L 1488 384 
L 1488 -809 
z
M 3594 5297 
L 4063 5297 
L 4063 4413 
Q 4956 4638 5900 4934 
L 6069 4516 
Q 5028 4241 4063 4016 
L 4063 3766 
Q 4063 3397 4456 3397 
L 5288 3397 
Q 5656 3397 5706 3616 
Q 5769 3816 5819 4222 
Q 6006 4134 6281 4047 
Q 6200 3634 6119 3397 
Q 5981 2984 5413 2984 
L 4369 2984 
Q 3594 2984 3594 3722 
L 3594 5297 
z
M 131 3497 
Q 1228 3663 2125 3847 
L 2125 4278 
L 306 4278 
L 306 4666 
L 2125 4666 
L 2125 5309 
L 2594 5309 
L 2594 2947 
L 2125 2947 
L 2125 3403 
Q 1147 3206 250 3022 
L 131 3497 
z
M 1488 784 
L 4925 784 
L 4925 1297 
L 1488 1297 
L 1488 784 
z
M 4925 2209 
L 1488 2209 
L 1488 1697 
L 4925 1697 
L 4925 2209 
z
" transform="scale(0.015625)"/>
        <path id="MicrosoftYaHei-666f" d="M 900 5084 
L 5500 5084 
L 5500 2984 
L 5050 2984 
L 5050 3209 
L 1350 3209 
L 1350 2984 
L 900 2984 
L 900 5084 
z
M 1013 2003 
L 5438 2003 
L 5438 566 
L 4988 566 
L 4988 766 
L 3481 766 
L 3481 -103 
Q 3488 -766 2825 -766 
Q 2406 -766 2131 -759 
Q 2119 -666 2038 -266 
Q 2431 -303 2713 -303 
Q 3013 -303 3019 9 
L 3019 766 
L 1463 766 
L 1463 566 
L 1013 566 
L 1013 2003 
z
M 338 2759 
L 2950 2759 
Q 2878 2888 2800 3022 
L 3219 3197 
Q 3350 2969 3459 2759 
L 6075 2759 
L 6075 2372 
L 338 2372 
L 338 2759 
z
M 4988 1628 
L 1463 1628 
L 1463 1141 
L 4988 1141 
L 4988 1628 
z
M 1350 3584 
L 5050 3584 
L 5050 3966 
L 1350 3966 
L 1350 3584 
z
M 5050 4709 
L 1350 4709 
L 1350 4328 
L 5050 4328 
L 5050 4709 
z
M 4000 103 
L 4213 497 
Q 5181 134 6113 -247 
L 5881 -678 
Q 5025 -278 4000 103 
z
M 2175 503 
L 2438 122 
Q 1531 -322 588 -741 
Q 494 -559 338 -341 
Q 1406 97 2175 503 
z
" transform="scale(0.015625)"/>
        <path id="MicrosoftYaHei-5757" d="M 2075 2147 
L 3491 2147 
Q 3566 2731 3569 3741 
L 2444 3741 
L 2444 4178 
L 3572 4178 
Q 3581 4813 3581 5284 
L 4069 5284 
Q 4069 4725 4066 4178 
L 5606 4178 
L 5606 2147 
L 6238 2147 
L 6238 1709 
L 4131 1709 
Q 4656 309 6163 -284 
Q 5944 -503 5725 -772 
Q 4291 16 3797 1375 
Q 3375 103 1900 -853 
Q 1713 -616 1531 -416 
Q 3038 481 3400 1709 
L 2075 1709 
L 2075 2147 
z
M 88 678 
Q 531 791 994 913 
L 994 3291 
L 169 3291 
L 169 3734 
L 994 3734 
L 994 5278 
L 1463 5278 
L 1463 3734 
L 2294 3734 
L 2294 3291 
L 1463 3291 
L 1463 1038 
Q 1894 1153 2338 1278 
Q 2350 1009 2369 791 
Q 1344 516 231 178 
L 88 678 
z
M 3984 2147 
L 5125 2147 
L 5125 3741 
L 4063 3741 
Q 4047 2741 3984 2147 
z
" transform="scale(0.015625)"/>
        <path id="MicrosoftYaHei-20" transform="scale(0.015625)"/>
        <path id="MicrosoftYaHei-31" d="M 1781 0 
L 1781 4141 
Q 1638 3997 1295 3819 
Q 953 3641 663 3569 
L 663 4169 
Q 1047 4275 1484 4508 
Q 1922 4741 2156 4947 
L 2388 4947 
L 2388 0 
L 1781 0 
z
" transform="scale(0.015625)"/>
        <path id="MicrosoftYaHei-32" d="M 2666 3572 
Q 2666 3963 2419 4186 
Q 2172 4409 1747 4409 
Q 1447 4409 1140 4256 
Q 834 4103 569 3819 
L 569 4413 
Q 806 4659 1107 4790 
Q 1409 4922 1816 4922 
Q 2472 4922 2872 4570 
Q 3272 4219 3272 3619 
Q 3272 3084 3026 2693 
Q 2781 2303 2188 1894 
Q 1581 1475 1376 1294 
Q 1172 1113 1090 947 
Q 1009 781 1009 544 
L 3416 544 
L 3416 0 
L 372 0 
L 372 241 
Q 372 659 486 951 
Q 600 1244 862 1520 
Q 1125 1797 1681 2184 
Q 2250 2584 2458 2886 
Q 2666 3188 2666 3572 
z
" transform="scale(0.015625)"/>
       </defs>
       <use xlink:href="#MicrosoftYaHei-80cc"/>
       <use xlink:href="#MicrosoftYaHei-666f" transform="translate(100 0)"/>
       <use xlink:href="#MicrosoftYaHei-5757" transform="translate(200 0)"/>
       <use xlink:href="#MicrosoftYaHei-20" transform="translate(300 0)"/>
       <use xlink:href="#MicrosoftYaHei-31" transform="translate(329.589844 0)"/>
       <use xlink:href="#MicrosoftYaHei-2192" transform="translate(388.232422 0)"/>
       <use xlink:href="#MicrosoftYaHei-32" transform="translate(488.232422 0)"/>
      </g>
     </g>
    </g>
    <g id="xtick_2">
     <g id="line2d_2">
      <g>
       <use xlink:href="#ma22dc1e2c1" x="199.303726" y="192.307916" style="stroke: #000000; stroke-width: 0.8"/>
      </g>
     </g>
     <g id="text_2">
      <!-- 0→54 -->
      <g transform="translate(183.438219 208.500729) scale(0.115 -0.115)">
       <use xlink:href="#MicrosoftYaHei-30"/>
       <use xlink:href="#MicrosoftYaHei-2192" transform="translate(58.642578 0)"/>
       <use xlink:href="#MicrosoftYaHei-35" transform="translate(158.642578 0)"/>
       <use xlink:href="#MicrosoftYaHei-34" transform="translate(217.285156 0)"/>
      </g>
      <!-- 背景块 2→3 -->
      <g transform="translate(167.858414 222.390932) scale(0.115 -0.115)">
       <defs>
        <path id="MicrosoftYaHei-33" d="M 447 809 
Q 944 425 1569 425 
Q 2069 425 2361 670 
Q 2653 916 2653 1328 
Q 2653 2247 1338 2247 
L 934 2247 
L 934 2753 
L 1319 2753 
Q 2484 2753 2484 3616 
Q 2484 4413 1594 4413 
Q 1084 4413 634 4069 
L 634 4647 
Q 1109 4922 1744 4922 
Q 2363 4922 2738 4598 
Q 3113 4275 3113 3759 
Q 3113 2809 2144 2538 
L 2144 2525 
Q 2669 2469 2973 2155 
Q 3278 1841 3278 1372 
Q 3278 719 2808 319 
Q 2338 -81 1556 -81 
Q 869 -81 447 175 
L 447 809 
z
" transform="scale(0.015625)"/>
       </defs>
       <use xlink:href="#MicrosoftYaHei-80cc"/>
       <use xlink:href="#MicrosoftYaHei-666f" transform="translate(100 0)"/>
       <use xlink:href="#MicrosoftYaHei-5757" transform="translate(200 0)"/>
       <use xlink:href="#MicrosoftYaHei-20" transform="translate(300 0)"/>
       <use xlink:href="#MicrosoftYaHei-32" transform="translate(329.589844 0)"/>
       <use xlink:href="#MicrosoftYaHei-2192" transform="translate(388.232422 0)"/>
       <use xlink:href="#MicrosoftYaHei-33" transform="translate(488.232422 0)"/>
      </g>
     </g>
    </g>
    <g id="xtick_3">
     <g id="line2d_3">
      <g>
       <use xlink:href="#ma22dc1e2c1" x="381.728616" y="192.307916" style="stroke: #000000; stroke-width: 0.8"/>
      </g>
     </g>
     <g id="text_3">
      <!-- 0→54 -->
      <g transform="translate(365.863108 208.500729) scale(0.115 -0.115)">
       <use xlink:href="#MicrosoftYaHei-30"/>
       <use xlink:href="#MicrosoftYaHei-2192" transform="translate(58.642578 0)"/>
       <use xlink:href="#MicrosoftYaHei-35" transform="translate(158.642578 0)"/>
       <use xlink:href="#MicrosoftYaHei-34" transform="translate(217.285156 0)"/>
      </g>
      <!-- 背景块 4→8 -->
      <g transform="translate(350.283303 222.390932) scale(0.115 -0.115)">
       <defs>
        <path id="MicrosoftYaHei-38" d="M 306 1350 
Q 306 1769 556 2122 
Q 806 2475 1200 2625 
Q 884 2803 700 3081 
Q 516 3359 516 3684 
Q 516 4028 692 4312 
Q 869 4597 1183 4759 
Q 1497 4922 1875 4922 
Q 2256 4922 2572 4761 
Q 2888 4600 3063 4315 
Q 3238 4031 3238 3684 
Q 3238 3366 3058 3086 
Q 2878 2806 2559 2625 
Q 2953 2472 3200 2119 
Q 3447 1766 3447 1350 
Q 3447 938 3250 611 
Q 3053 284 2690 103 
Q 2328 -78 1875 -78 
Q 1425 -78 1065 103 
Q 706 284 506 612 
Q 306 941 306 1350 
z
M 906 1378 
Q 906 947 1172 687 
Q 1438 428 1878 428 
Q 2309 428 2582 692 
Q 2856 956 2856 1378 
Q 2856 1778 2579 2051 
Q 2303 2325 1878 2325 
Q 1456 2325 1181 2058 
Q 906 1791 906 1378 
z
M 1081 3634 
Q 1081 3309 1312 3076 
Q 1544 2844 1878 2844 
Q 2206 2844 2445 3078 
Q 2684 3313 2684 3634 
Q 2684 3963 2454 4191 
Q 2225 4419 1878 4419 
Q 1534 4419 1307 4195 
Q 1081 3972 1081 3634 
z
" transform="scale(0.015625)"/>
       </defs>
       <use xlink:href="#MicrosoftYaHei-80cc"/>
       <use xlink:href="#MicrosoftYaHei-666f" transform="translate(100 0)"/>
       <use xlink:href="#MicrosoftYaHei-5757" transform="translate(200 0)"/>
       <use xlink:href="#MicrosoftYaHei-20" transform="translate(300 0)"/>
       <use xlink:href="#MicrosoftYaHei-34" transform="translate(329.589844 0)"/>
       <use xlink:href="#MicrosoftYaHei-2192" transform="translate(388.232422 0)"/>
       <use xlink:href="#MicrosoftYaHei-38" transform="translate(488.232422 0)"/>
      </g>
     </g>
    </g>
    <g id="xtick_4">
     <g id="line2d_4">
      <g>
       <use xlink:href="#ma22dc1e2c1" x="472.94106" y="192.307916" style="stroke: #000000; stroke-width: 0.8"/>
      </g>
     </g>
     <g id="text_4">
      <!-- 0→54 -->
      <g transform="translate(457.075553 208.500729) scale(0.115 -0.115)">
       <use xlink:href="#MicrosoftYaHei-30"/>
       <use xlink:href="#MicrosoftYaHei-2192" transform="translate(58.642578 0)"/>
       <use xlink:href="#MicrosoftYaHei-35" transform="translate(158.642578 0)"/>
       <use xlink:href="#MicrosoftYaHei-34" transform="translate(217.285156 0)"/>
      </g>
      <!-- 背景块 8→12 -->
      <g transform="translate(438.123912 222.390932) scale(0.115 -0.115)">
       <use xlink:href="#MicrosoftYaHei-80cc"/>
       <use xlink:href="#MicrosoftYaHei-666f" transform="translate(100 0)"/>
       <use xlink:href="#MicrosoftYaHei-5757" transform="translate(200 0)"/>
       <use xlink:href="#MicrosoftYaHei-20" transform="translate(300 0)"/>
       <use xlink:href="#MicrosoftYaHei-38" transform="translate(329.589844 0)"/>
       <use xlink:href="#MicrosoftYaHei-2192" transform="translate(388.232422 0)"/>
       <use xlink:href="#MicrosoftYaHei-31" transform="translate(488.232422 0)"/>
       <use xlink:href="#MicrosoftYaHei-32" transform="translate(546.875 0)"/>
      </g>
     </g>
    </g>
    <g id="xtick_5">
     <g id="line2d_5">
      <g>
       <use xlink:href="#ma22dc1e2c1" x="655.36595" y="192.307916" style="stroke: #000000; stroke-width: 0.8"/>
      </g>
     </g>
     <g id="text_5">
      <!-- 54→0 -->
      <g transform="translate(639.500442 208.500729) scale(0.115 -0.115)">
       <use xlink:href="#MicrosoftYaHei-35"/>
       <use xlink:href="#MicrosoftYaHei-34" transform="translate(58.642578 0)"/>
       <use xlink:href="#MicrosoftYaHei-2192" transform="translate(117.285156 0)"/>
       <use xlink:href="#MicrosoftYaHei-30" transform="translate(217.285156 0)"/>
      </g>
      <!-- 背景块 8→4 -->
      <g transform="translate(623.920637 222.390932) scale(0.115 -0.115)">
       <use xlink:href="#MicrosoftYaHei-80cc"/>
       <use xlink:href="#MicrosoftYaHei-666f" transform="translate(100 0)"/>
       <use xlink:href="#MicrosoftYaHei-5757" transform="translate(200 0)"/>
       <use xlink:href="#MicrosoftYaHei-20" transform="translate(300 0)"/>
       <use xlink:href="#MicrosoftYaHei-38" transform="translate(329.589844 0)"/>
       <use xlink:href="#MicrosoftYaHei-2192" transform="translate(388.232422 0)"/>
       <use xlink:href="#MicrosoftYaHei-34" transform="translate(488.232422 0)"/>
      </g>
     </g>
    </g>
    <g id="xtick_6">
     <g id="line2d_6">
      <g>
       <use xlink:href="#ma22dc1e2c1" x="746.578395" y="192.307916" style="stroke: #000000; stroke-width: 0.8"/>
      </g>
     </g>
     <g id="text_6">
      <!-- 54→0 -->
      <g transform="translate(730.712887 208.500729) scale(0.115 -0.115)">
       <use xlink:href="#MicrosoftYaHei-35"/>
       <use xlink:href="#MicrosoftYaHei-34" transform="translate(58.642578 0)"/>
       <use xlink:href="#MicrosoftYaHei-2192" transform="translate(117.285156 0)"/>
       <use xlink:href="#MicrosoftYaHei-30" transform="translate(217.285156 0)"/>
      </g>
      <!-- 背景块 12→8 -->
      <g transform="translate(711.761246 222.390932) scale(0.115 -0.115)">
       <use xlink:href="#MicrosoftYaHei-80cc"/>
       <use xlink:href="#MicrosoftYaHei-666f" transform="translate(100 0)"/>
       <use xlink:href="#MicrosoftYaHei-5757" transform="translate(200 0)"/>
       <use xlink:href="#MicrosoftYaHei-20" transform="translate(300 0)"/>
       <use xlink:href="#MicrosoftYaHei-31" transform="translate(329.589844 0)"/>
       <use xlink:href="#MicrosoftYaHei-32" transform="translate(388.232422 0)"/>
       <use xlink:href="#MicrosoftYaHei-2192" transform="translate(446.875 0)"/>
       <use xlink:href="#MicrosoftYaHei-38" transform="translate(546.875 0)"/>
      </g>
     </g>
    </g>
   </g>
   <g id="matplotlib.axis_2">
    <g id="ytick_1">
     <g id="line2d_7">
      <path d="M 47.070156 192.307916 
L 807.59952 192.307916 
" clip-path="url(#p929b9b44b4)" style="fill: none; stroke: #b0b0b0; stroke-opacity: 0.18; stroke-width: 0.8; stroke-linecap: square"/>
     </g>
     <g id="line2d_8">
      <defs>
       <path id="m0591ffa4a9" d="M 0 0 
L -3.5 0 
" style="stroke: #000000; stroke-width: 0.8"/>
      </defs>
      <g>
       <use xlink:href="#m0591ffa4a9" x="47.070156" y="192.307916" style="stroke: #000000; stroke-width: 0.8"/>
      </g>
     </g>
     <g id="text_7">
      <!-- 0 -->
      <g transform="translate(32.446875 197.503854) scale(0.13 -0.13)">
       <use xlink:href="#MicrosoftYaHei-30"/>
      </g>
     </g>
    </g>
    <g id="ytick_2">
     <g id="line2d_9">
      <path d="M 47.070156 153.455512 
L 807.59952 153.455512 
" clip-path="url(#p929b9b44b4)" style="fill: none; stroke: #b0b0b0; stroke-opacity: 0.18; stroke-width: 0.8; stroke-linecap: square"/>
     </g>
     <g id="line2d_10">
      <g>
       <use xlink:href="#m0591ffa4a9" x="47.070156" y="153.455512" style="stroke: #000000; stroke-width: 0.8"/>
      </g>
     </g>
     <g id="text_8">
      <!-- 10 -->
      <g transform="translate(24.823594 158.651449) scale(0.13 -0.13)">
       <use xlink:href="#MicrosoftYaHei-31"/>
       <use xlink:href="#MicrosoftYaHei-30" transform="translate(58.642578 0)"/>
      </g>
     </g>
    </g>
    <g id="ytick_3">
     <g id="line2d_11">
      <path d="M 47.070156 114.603107 
L 807.59952 114.603107 
" clip-path="url(#p929b9b44b4)" style="fill: none; stroke: #b0b0b0; stroke-opacity: 0.18; stroke-width: 0.8; stroke-linecap: square"/>
     </g>
     <g id="line2d_12">
      <g>
       <use xlink:href="#m0591ffa4a9" x="47.070156" y="114.603107" style="stroke: #000000; stroke-width: 0.8"/>
      </g>
     </g>
     <g id="text_9">
      <!-- 20 -->
      <g transform="translate(24.823594 119.799045) scale(0.13 -0.13)">
       <use xlink:href="#MicrosoftYaHei-32"/>
       <use xlink:href="#MicrosoftYaHei-30" transform="translate(58.642578 0)"/>
      </g>
     </g>
    </g>
    <g id="ytick_4">
     <g id="line2d_13">
      <path d="M 47.070156 75.750703 
L 807.59952 75.750703 
" clip-path="url(#p929b9b44b4)" style="fill: none; stroke: #b0b0b0; stroke-opacity: 0.18; stroke-width: 0.8; stroke-linecap: square"/>
     </g>
     <g id="line2d_14">
      <g>
       <use xlink:href="#m0591ffa4a9" x="47.070156" y="75.750703" style="stroke: #000000; stroke-width: 0.8"/>
      </g>
     </g>
     <g id="text_10">
      <!-- 30 -->
      <g transform="translate(24.823594 80.94664) scale(0.13 -0.13)">
       <use xlink:href="#MicrosoftYaHei-33"/>
       <use xlink:href="#MicrosoftYaHei-30" transform="translate(58.642578 0)"/>
      </g>
     </g>
    </g>
    <g id="ytick_5">
     <g id="line2d_15">
      <path d="M 47.070156 36.898298 
L 807.59952 36.898298 
" clip-path="url(#p929b9b44b4)" style="fill: none; stroke: #b0b0b0; stroke-opacity: 0.18; stroke-width: 0.8; stroke-linecap: square"/>
     </g>
     <g id="line2d_16">
      <g>
       <use xlink:href="#m0591ffa4a9" x="47.070156" y="36.898298" style="stroke: #000000; stroke-width: 0.8"/>
      </g>
     </g>
     <g id="text_11">
      <!-- 40 -->
      <g transform="translate(24.823594 42.094236) scale(0.13 -0.13)">
       <use xlink:href="#MicrosoftYaHei-34"/>
       <use xlink:href="#MicrosoftYaHei-30" transform="translate(58.642578 0)"/>
      </g>
     </g>
    </g>
    <g id="text_12">
     <!-- 1 KiB 探针 RTT 增幅 (%) -->
     <g transform="translate(17.591875 185.740529) rotate(-90) scale(0.13 -0.13)">
      <defs>
       <path id="MicrosoftYaHei-4b" d="M 4069 0 
L 3213 0 
L 1394 2200 
Q 1300 2316 1266 2381 
L 1250 2381 
L 1250 0 
L 625 0 
L 625 4841 
L 1250 4841 
L 1250 2563 
L 1266 2563 
Q 1319 2647 1394 2741 
L 3150 4841 
L 3922 4841 
L 1891 2519 
L 4069 0 
z
" transform="scale(0.015625)"/>
       <path id="MicrosoftYaHei-69" d="M 472 4675 
Q 472 4838 583 4948 
Q 694 5059 856 5059 
Q 1022 5059 1136 4950 
Q 1250 4841 1250 4675 
Q 1250 4513 1136 4405 
Q 1022 4297 856 4297 
Q 691 4297 581 4405 
Q 472 4513 472 4675 
z
M 544 0 
L 544 3456 
L 1156 3456 
L 1156 0 
L 544 0 
z
" transform="scale(0.015625)"/>
       <path id="MicrosoftYaHei-42" d="M 625 0 
L 625 4841 
L 2047 4841 
Q 2684 4841 3065 4536 
Q 3447 4231 3447 3728 
Q 3447 3328 3220 3022 
Q 2994 2716 2597 2588 
L 2597 2575 
Q 3091 2519 3386 2201 
Q 3681 1884 3681 1397 
Q 3681 772 3232 386 
Q 2784 0 2084 0 
L 625 0 
z
M 1250 4294 
L 1250 2778 
L 1819 2778 
Q 2272 2778 2530 2998 
Q 2788 3219 2788 3609 
Q 2788 4294 1875 4294 
L 1250 4294 
z
M 1250 2234 
L 1250 547 
L 2000 547 
Q 2491 547 2758 773 
Q 3025 1000 3025 1403 
Q 3025 2234 1897 2234 
L 1250 2234 
z
" transform="scale(0.015625)"/>
       <path id="MicrosoftYaHei-63a2" d="M 6375 91 
Q 6188 -141 6038 -359 
Q 5000 353 4400 1703 
L 4400 -853 
L 3938 -853 
L 3938 1678 
Q 3244 416 2131 -422 
Q 1981 -234 1781 -34 
Q 2844 609 3525 1784 
L 2144 1784 
L 2144 2209 
L 3938 2209 
L 3938 2997 
L 4400 2997 
L 4400 2209 
L 6244 2209 
L 6244 1784 
L 4800 1784 
Q 5394 591 6375 91 
z
M 100 1941 
Q 531 2053 944 2178 
L 944 3616 
L 175 3616 
L 175 4066 
L 944 4066 
L 944 5241 
L 1406 5241 
L 1406 4066 
L 2038 4066 
L 2038 3616 
L 1406 3616 
L 1406 2322 
Q 1694 2416 1981 2516 
Q 1988 2234 2019 2028 
Q 1713 1928 1406 1828 
L 1406 -78 
Q 1406 -766 806 -772 
Q 575 -778 213 -766 
Q 188 -509 138 -247 
Q 500 -284 694 -284 
Q 944 -284 944 34 
L 944 1672 
Q 556 1541 163 1403 
L 100 1941 
z
M 2263 4853 
L 6125 4853 
L 6125 3809 
L 5675 3809 
L 5675 4441 
L 2713 4441 
L 2713 3809 
L 2263 3809 
L 2263 4853 
z
M 4438 3753 
L 4763 4078 
Q 5494 3478 6106 2897 
L 5744 2522 
Q 5038 3247 4438 3753 
z
M 3381 4059 
L 3781 3784 
Q 3363 3228 2650 2447 
Q 2488 2591 2275 2759 
Q 2875 3334 3381 4059 
z
" transform="scale(0.015625)"/>
       <path id="MicrosoftYaHei-9488" d="M 144 2022 
L 1194 2022 
L 1194 2803 
L 706 2803 
L 706 3159 
Q 563 2884 406 2641 
Q 238 2891 75 3078 
Q 663 4034 981 5297 
L 1494 5153 
Q 1375 4753 1244 4391 
L 2906 4391 
L 2906 3922 
L 1059 3922 
Q 919 3578 763 3272 
L 2556 3272 
L 2556 2803 
L 1681 2803 
L 1681 2022 
L 2844 2022 
L 2844 1553 
L 1681 1553 
L 1681 78 
Q 2425 497 2775 722 
Q 2819 422 2875 216 
Q 2481 -3 1675 -503 
Q 1444 -666 1313 -797 
L 975 -366 
Q 1194 -159 1194 134 
L 1194 1553 
L 144 1553 
L 144 2022 
z
M 2838 3153 
L 4313 3153 
L 4313 5316 
L 4825 5316 
L 4825 3153 
L 6319 3153 
L 6319 2666 
L 4825 2666 
L 4825 -841 
L 4313 -841 
L 4313 2666 
L 2838 2666 
L 2838 3153 
z
" transform="scale(0.015625)"/>
       <path id="MicrosoftYaHei-52" d="M 4159 0 
L 3422 0 
L 2619 1344 
Q 2378 1747 2178 1892 
Q 1978 2038 1700 2038 
L 1250 2038 
L 1250 0 
L 625 0 
L 625 4841 
L 2100 4841 
Q 2806 4841 3206 4500 
Q 3606 4159 3606 3547 
Q 3606 2541 2531 2241 
L 2531 2225 
Q 2731 2141 2876 1984 
Q 3022 1828 3253 1450 
L 4159 0 
z
M 1250 4294 
L 1250 2584 
L 1988 2584 
Q 2416 2584 2683 2834 
Q 2950 3084 2950 3491 
Q 2950 3869 2706 4081 
Q 2463 4294 1997 4294 
L 1250 4294 
z
" transform="scale(0.015625)"/>
       <path id="MicrosoftYaHei-54" d="M 3550 4284 
L 2153 4284 
L 2153 0 
L 1525 0 
L 1525 4284 
L 134 4284 
L 134 4841 
L 3550 4841 
L 3550 4284 
z
" transform="scale(0.015625)"/>
       <path id="MicrosoftYaHei-589e" d="M 2188 4459 
L 3259 4459 
Q 3041 4781 2775 5116 
L 3131 5366 
Q 3456 4991 3694 4666 
L 3403 4459 
L 4453 4459 
Q 4759 4888 5050 5372 
L 5500 5116 
Q 5234 4772 4978 4459 
L 6038 4459 
L 6038 2122 
L 5600 2122 
L 5600 2309 
L 2625 2309 
L 2625 2122 
L 2188 2122 
L 2188 4459 
z
M 2438 1797 
L 5788 1797 
L 5788 -847 
L 5338 -847 
L 5338 -547 
L 2888 -547 
L 2888 -847 
L 2438 -847 
L 2438 1797 
z
M 81 428 
Q 466 538 894 672 
L 894 3253 
L 144 3253 
L 144 3697 
L 894 3697 
L 894 5259 
L 1356 5259 
L 1356 3697 
L 2000 3697 
L 2000 3253 
L 1356 3253 
L 1356 819 
Q 1709 931 2094 1059 
Q 2106 759 2125 553 
Q 1306 316 250 -53 
L 81 428 
z
M 5600 4084 
L 4325 4084 
L 4325 2684 
L 5600 2684 
L 5600 4084 
z
M 2625 2684 
L 3894 2684 
L 3894 4084 
L 2625 4084 
L 2625 2684 
z
M 5338 1409 
L 2888 1409 
L 2888 809 
L 5338 809 
L 5338 1409 
z
M 2888 -159 
L 5338 -159 
L 5338 434 
L 2888 434 
L 2888 -159 
z
M 5350 3609 
Q 5006 3066 4856 2884 
L 4519 3084 
Q 4744 3391 4981 3828 
L 5350 3609 
z
M 2863 3597 
L 3181 3803 
Q 3463 3441 3669 3122 
L 3319 2897 
Q 3119 3228 2863 3597 
z
" transform="scale(0.015625)"/>
       <path id="MicrosoftYaHei-5e45" d="M 2725 2197 
L 6094 2197 
L 6094 -822 
L 5681 -822 
L 5681 -459 
L 3138 -459 
L 3138 -816 
L 2725 -816 
L 2725 2197 
z
M 331 4222 
L 1131 4222 
L 1131 5297 
L 1544 5297 
L 1544 4222 
L 2388 4222 
L 2388 978 
Q 2388 472 1900 472 
L 1700 472 
Q 1663 659 1594 872 
Q 1719 859 1831 859 
Q 1988 859 1988 1028 
L 1988 3822 
L 1544 3822 
L 1544 -816 
L 1131 -816 
L 1131 3822 
L 731 3822 
L 731 384 
L 331 384 
L 331 4222 
z
M 3031 4178 
L 5813 4178 
L 5813 2478 
L 5400 2478 
L 5400 2703 
L 3444 2703 
L 3444 2478 
L 3031 2478 
L 3031 4178 
z
M 2588 5009 
L 6250 5009 
L 6250 4609 
L 2588 4609 
L 2588 5009 
z
M 5400 3791 
L 3444 3791 
L 3444 3091 
L 5400 3091 
L 5400 3791 
z
M 5681 1809 
L 4606 1809 
L 4606 1053 
L 5681 1053 
L 5681 1809 
z
M 3138 1053 
L 4206 1053 
L 4206 1809 
L 3138 1809 
L 3138 1053 
z
M 4606 -72 
L 5681 -72 
L 5681 678 
L 4606 678 
L 4606 -72 
z
M 3138 -72 
L 4206 -72 
L 4206 678 
L 3138 678 
L 3138 -72 
z
" transform="scale(0.015625)"/>
       <path id="MicrosoftYaHei-28" d="M 1531 -1100 
Q 478 100 478 1847 
Q 478 3594 1531 4841 
L 2072 4841 
Q 1016 3544 1016 1853 
Q 1016 166 2066 -1100 
L 1531 -1100 
z
" transform="scale(0.015625)"/>
       <path id="MicrosoftYaHei-25" d="M 272 3619 
Q 272 4213 589 4563 
Q 906 4913 1444 4913 
Q 1959 4913 2248 4591 
Q 2538 4269 2538 3694 
Q 2538 3122 2219 2765 
Q 1900 2409 1372 2409 
Q 872 2409 572 2740 
Q 272 3072 272 3619 
z
M 753 3650 
Q 753 3247 928 3028 
Q 1103 2809 1406 2809 
Q 1719 2809 1889 3036 
Q 2059 3263 2059 3675 
Q 2059 4078 1892 4298 
Q 1725 4519 1422 4519 
Q 1113 4519 933 4289 
Q 753 4059 753 3650 
z
M 4647 4841 
L 1538 -31 
L 1016 -31 
L 4125 4841 
L 4647 4841 
z
M 3172 1134 
Q 3172 1728 3489 2083 
Q 3806 2438 4341 2438 
Q 4853 2438 5143 2114 
Q 5434 1791 5434 1203 
Q 5434 634 5112 279 
Q 4791 -75 4272 -75 
Q 3769 -75 3470 261 
Q 3172 597 3172 1134 
z
M 3650 1163 
Q 3650 769 3825 548 
Q 4000 328 4303 328 
Q 4616 328 4786 556 
Q 4956 784 4956 1194 
Q 4956 1600 4786 1815 
Q 4616 2031 4319 2031 
Q 4000 2031 3825 1801 
Q 3650 1572 3650 1163 
z
" transform="scale(0.015625)"/>
       <path id="MicrosoftYaHei-29" d="M 78 -1100 
Q 1131 163 1131 1853 
Q 1131 3547 72 4841 
L 616 4841 
Q 1672 3603 1672 1847 
Q 1672 91 616 -1100 
L 78 -1100 
z
" transform="scale(0.015625)"/>
      </defs>
      <use xlink:href="#MicrosoftYaHei-31"/>
      <use xlink:href="#MicrosoftYaHei-20" transform="translate(58.642578 0)"/>
      <use xlink:href="#MicrosoftYaHei-4b" transform="translate(88.232422 0)"/>
      <use xlink:href="#MicrosoftYaHei-69" transform="translate(151.708984 0)"/>
      <use xlink:href="#MicrosoftYaHei-42" transform="translate(178.320312 0)"/>
      <use xlink:href="#MicrosoftYaHei-20" transform="translate(241.064453 0)"/>
      <use xlink:href="#MicrosoftYaHei-63a2" transform="translate(270.654297 0)"/>
      <use xlink:href="#MicrosoftYaHei-9488" transform="translate(370.654297 0)"/>
      <use xlink:href="#MicrosoftYaHei-20" transform="translate(470.654297 0)"/>
      <use xlink:href="#MicrosoftYaHei-52" transform="translate(500.244141 0)"/>
      <use xlink:href="#MicrosoftYaHei-54" transform="translate(562.777344 0)"/>
      <use xlink:href="#MicrosoftYaHei-54" transform="translate(622.101562 0)"/>
      <use xlink:href="#MicrosoftYaHei-20" transform="translate(679.425781 0)"/>
      <use xlink:href="#MicrosoftYaHei-589e" transform="translate(709.015625 0)"/>
      <use xlink:href="#MicrosoftYaHei-5e45" transform="translate(809.015625 0)"/>
      <use xlink:href="#MicrosoftYaHei-20" transform="translate(909.015625 0)"/>
      <use xlink:href="#MicrosoftYaHei-28" transform="translate(938.605469 0)"/>
      <use xlink:href="#MicrosoftYaHei-25" transform="translate(972.003906 0)"/>
      <use xlink:href="#MicrosoftYaHei-29" transform="translate(1060.96875 0)"/>
     </g>
    </g>
   </g>
   <g id="patch_3">
    <path d="M 81.639673 192.307916 
L 134.542891 192.307916 
L 134.542891 56.476809 
L 81.639673 56.476809 
z
" clip-path="url(#p929b9b44b4)" style="fill: #d86624"/>
   </g>
   <g id="patch_4">
    <path d="M 172.852117 192.307916 
L 225.755335 192.307916 
L 225.755335 178.54125 
L 172.852117 178.54125 
z
" clip-path="url(#p929b9b44b4)" style="fill: #2670ac"/>
   </g>
   <g id="patch_5">
    <path d="M 355.277007 192.307916 
L 408.180225 192.307916 
L 408.180225 180.983578 
L 355.277007 180.983578 
z
" clip-path="url(#p929b9b44b4)" style="fill: #d86624"/>
   </g>
   <g id="patch_6">
    <path d="M 446.489452 192.307916 
L 499.392669 192.307916 
L 499.392669 60.714297 
L 446.489452 60.714297 
z
" clip-path="url(#p929b9b44b4)" style="fill: #2670ac"/>
   </g>
   <g id="patch_7">
    <path d="M 628.914341 192.307916 
L 681.817559 192.307916 
L 681.817559 103.252799 
L 628.914341 103.252799 
z
" clip-path="url(#p929b9b44b4)" style="fill: #d86624"/>
   </g>
   <g id="patch_8">
    <path d="M 720.126786 192.307916 
L 773.030003 192.307916 
L 773.030003 171.360249 
L 720.126786 171.360249 
z
" clip-path="url(#p929b9b44b4)" style="fill: #2670ac"/>
   </g>
   <g id="LineCollection_1">
    <path d="M 108.091282 56.933435 
L 108.091282 53.707647 
" clip-path="url(#p929b9b44b4)" style="fill: none; stroke: #333333; stroke-width: 1.5"/>
    <path d="M 199.303726 178.762604 
L 199.303726 178.179582 
" clip-path="url(#p929b9b44b4)" style="fill: none; stroke: #333333; stroke-width: 1.5"/>
   </g>
   <g id="line2d_17">
    <defs>
     <path id="m8cf7491ec7" d="M 4 0 
L -4 -0 
" style="stroke: #333333"/>
    </defs>
    <g clip-path="url(#p929b9b44b4)">
     <use xlink:href="#m8cf7491ec7" x="108.091282" y="56.933435" style="fill: #1f77b4; stroke: #333333"/>
     <use xlink:href="#m8cf7491ec7" x="199.303726" y="178.762604" style="fill: #1f77b4; stroke: #333333"/>
    </g>
   </g>
   <g id="line2d_18">
    <g clip-path="url(#p929b9b44b4)">
     <use xlink:href="#m8cf7491ec7" x="108.091282" y="53.707647" style="fill: #1f77b4; stroke: #333333"/>
     <use xlink:href="#m8cf7491ec7" x="199.303726" y="178.179582" style="fill: #1f77b4; stroke: #333333"/>
    </g>
   </g>
   <g id="line2d_19">
    <path d="M 108.091282 145.675231 
L 199.303726 145.675231 
" clip-path="url(#p929b9b44b4)" style="fill: none; stroke-dasharray: 5.55,2.4; stroke-dashoffset: 0; stroke: #222222; stroke-width: 1.5"/>
    <defs>
     <path id="m2b6ea7d233" d="M 0 2.828427 
L 2.828427 0 
L 0 -2.828427 
L -2.828427 0 
z
" style="stroke: #222222; stroke-linejoin: miter"/>
    </defs>
    <g clip-path="url(#p929b9b44b4)">
     <use xlink:href="#m2b6ea7d233" x="108.091282" y="145.675231" style="fill: #222222; stroke: #222222; stroke-linejoin: miter"/>
     <use xlink:href="#m2b6ea7d233" x="199.303726" y="145.675231" style="fill: #222222; stroke: #222222; stroke-linejoin: miter"/>
    </g>
   </g>
   <g id="LineCollection_2">
    <path d="M 381.728616 181.189197 
L 381.728616 180.792415 
" clip-path="url(#p929b9b44b4)" style="fill: none; stroke: #333333; stroke-width: 1.5"/>
    <path d="M 472.94106 61.499051 
L 472.94106 59.997903 
" clip-path="url(#p929b9b44b4)" style="fill: none; stroke: #333333; stroke-width: 1.5"/>
   </g>
   <g id="line2d_20">
    <g clip-path="url(#p929b9b44b4)">
     <use xlink:href="#m8cf7491ec7" x="381.728616" y="181.189197" style="fill: #1f77b4; stroke: #333333"/>
     <use xlink:href="#m8cf7491ec7" x="472.94106" y="61.499051" style="fill: #1f77b4; stroke: #333333"/>
    </g>
   </g>
   <g id="line2d_21">
    <g clip-path="url(#p929b9b44b4)">
     <use xlink:href="#m8cf7491ec7" x="381.728616" y="180.792415" style="fill: #1f77b4; stroke: #333333"/>
     <use xlink:href="#m8cf7491ec7" x="472.94106" y="59.997903" style="fill: #1f77b4; stroke: #333333"/>
    </g>
   </g>
   <g id="line2d_22">
    <path d="M 381.728616 134.310145 
L 472.94106 134.310145 
" clip-path="url(#p929b9b44b4)" style="fill: none; stroke-dasharray: 5.55,2.4; stroke-dashoffset: 0; stroke: #222222; stroke-width: 1.5"/>
    <g clip-path="url(#p929b9b44b4)">
     <use xlink:href="#m2b6ea7d233" x="381.728616" y="134.310145" style="fill: #222222; stroke: #222222; stroke-linejoin: miter"/>
     <use xlink:href="#m2b6ea7d233" x="472.94106" y="134.310145" style="fill: #222222; stroke: #222222; stroke-linejoin: miter"/>
    </g>
   </g>
   <g id="LineCollection_3">
    <path d="M 655.36595 103.656911 
L 655.36595 102.686792 
" clip-path="url(#p929b9b44b4)" style="fill: none; stroke: #333333; stroke-width: 1.5"/>
    <path d="M 746.578395 171.487957 
L 746.578395 171.184649 
" clip-path="url(#p929b9b44b4)" style="fill: none; stroke: #333333; stroke-width: 1.5"/>
   </g>
   <g id="line2d_23">
    <g clip-path="url(#p929b9b44b4)">
     <use xlink:href="#m8cf7491ec7" x="655.36595" y="103.656911" style="fill: #1f77b4; stroke: #333333"/>
     <use xlink:href="#m8cf7491ec7" x="746.578395" y="171.487957" style="fill: #1f77b4; stroke: #333333"/>
    </g>
   </g>
   <g id="line2d_24">
    <g clip-path="url(#p929b9b44b4)">
     <use xlink:href="#m8cf7491ec7" x="655.36595" y="102.686792" style="fill: #1f77b4; stroke: #333333"/>
     <use xlink:href="#m8cf7491ec7" x="746.578395" y="171.184649" style="fill: #1f77b4; stroke: #333333"/>
    </g>
   </g>
   <g id="line2d_25">
    <path d="M 655.36595 145.675231 
L 746.578395 145.675231 
" clip-path="url(#p929b9b44b4)" style="fill: none; stroke-dasharray: 5.55,2.4; stroke-dashoffset: 0; stroke: #222222; stroke-width: 1.5"/>
    <g clip-path="url(#p929b9b44b4)">
     <use xlink:href="#m2b6ea7d233" x="655.36595" y="145.675231" style="fill: #222222; stroke: #222222; stroke-linejoin: miter"/>
     <use xlink:href="#m2b6ea7d233" x="746.578395" y="145.675231" style="fill: #222222; stroke: #222222; stroke-linejoin: miter"/>
    </g>
   </g>
   <g id="patch_9">
    <path d="M 47.070156 192.307916 
L 47.070156 36.898298 
" style="fill: none; stroke: #000000; stroke-width: 0.8; stroke-linejoin: miter; stroke-linecap: square"/>
   </g>
   <g id="patch_10">
    <path d="M 807.59952 192.307916 
L 807.59952 36.898298 
" style="fill: none; stroke: #000000; stroke-width: 0.8; stroke-linejoin: miter; stroke-linecap: square"/>
   </g>
   <g id="patch_11">
    <path d="M 47.070156 192.307916 
L 807.59952 192.307916 
" style="fill: none; stroke: #000000; stroke-width: 0.8; stroke-linejoin: miter; stroke-linecap: square"/>
   </g>
   <g id="patch_12">
    <path d="M 47.070156 36.898298 
L 807.59952 36.898298 
" style="fill: none; stroke: #000000; stroke-width: 0.8; stroke-linejoin: miter; stroke-linecap: square"/>
   </g>
   <g id="text_13">
    <!-- 34.96% -->
    <g transform="translate(87.234719 53.368616) scale(0.12 -0.12)">
     <defs>
      <path id="MicrosoftYaHei-2e" d="M 372 322 
Q 372 491 487 606 
Q 603 722 775 722 
Q 950 722 1065 605 
Q 1181 488 1181 322 
Q 1181 159 1065 42 
Q 950 -75 772 -75 
Q 600 -75 486 42 
Q 372 159 372 322 
z
" transform="scale(0.015625)"/>
      <path id="MicrosoftYaHei-39" d="M 578 656 
Q 978 425 1441 425 
Q 2091 425 2448 937 
Q 2806 1450 2806 2394 
Q 2800 2388 2794 2394 
Q 2475 1788 1722 1788 
Q 1113 1788 713 2206 
Q 313 2625 313 3294 
Q 313 4006 750 4464 
Q 1188 4922 1884 4922 
Q 2606 4922 3012 4355 
Q 3419 3788 3419 2703 
Q 3419 1363 2894 641 
Q 2369 -81 1441 -81 
Q 931 -81 578 84 
L 578 656 
z
M 931 3372 
Q 931 2884 1181 2598 
Q 1431 2313 1872 2313 
Q 2253 2313 2512 2573 
Q 2772 2834 2772 3206 
Q 2772 3728 2514 4070 
Q 2256 4413 1834 4413 
Q 1444 4413 1187 4116 
Q 931 3819 931 3372 
z
" transform="scale(0.015625)"/>
      <path id="MicrosoftYaHei-36" d="M 3181 4219 
Q 2803 4413 2391 4413 
Q 1763 4413 1381 3866 
Q 1000 3319 994 2372 
L 1009 2372 
Q 1353 3038 2106 3038 
Q 2734 3038 3109 2628 
Q 3484 2219 3484 1541 
Q 3484 831 3051 375 
Q 2619 -81 1947 -81 
Q 1209 -81 789 495 
Q 369 1072 369 2131 
Q 369 3413 920 4167 
Q 1472 4922 2372 4922 
Q 2888 4922 3181 4781 
L 3181 4219 
z
M 1031 1584 
Q 1031 1106 1286 765 
Q 1541 425 1963 425 
Q 2363 425 2613 719 
Q 2863 1013 2863 1475 
Q 2863 1975 2627 2253 
Q 2391 2531 1956 2531 
Q 1544 2531 1287 2250 
Q 1031 1969 1031 1584 
z
" transform="scale(0.015625)"/>
     </defs>
     <use xlink:href="#MicrosoftYaHei-33"/>
     <use xlink:href="#MicrosoftYaHei-34" transform="translate(58.642578 0)"/>
     <use xlink:href="#MicrosoftYaHei-2e" transform="translate(117.285156 0)"/>
     <use xlink:href="#MicrosoftYaHei-39" transform="translate(141.357422 0)"/>
     <use xlink:href="#MicrosoftYaHei-36" transform="translate(200 0)"/>
     <use xlink:href="#MicrosoftYaHei-25" transform="translate(258.642578 0)"/>
    </g>
   </g>
   <g id="text_14">
    <!-- 3.54% -->
    <g transform="translate(181.965601 175.433058) scale(0.12 -0.12)">
     <use xlink:href="#MicrosoftYaHei-33"/>
     <use xlink:href="#MicrosoftYaHei-2e" transform="translate(58.642578 0)"/>
     <use xlink:href="#MicrosoftYaHei-35" transform="translate(82.714844 0)"/>
     <use xlink:href="#MicrosoftYaHei-34" transform="translate(141.357422 0)"/>
     <use xlink:href="#MicrosoftYaHei-25" transform="translate(200 0)"/>
    </g>
   </g>
   <g id="text_15">
    <!-- 2.91% -->
    <g transform="translate(364.390491 177.875386) scale(0.12 -0.12)">
     <use xlink:href="#MicrosoftYaHei-32"/>
     <use xlink:href="#MicrosoftYaHei-2e" transform="translate(58.642578 0)"/>
     <use xlink:href="#MicrosoftYaHei-39" transform="translate(82.714844 0)"/>
     <use xlink:href="#MicrosoftYaHei-31" transform="translate(141.357422 0)"/>
     <use xlink:href="#MicrosoftYaHei-25" transform="translate(200 0)"/>
    </g>
   </g>
   <g id="text_16">
    <!-- 33.87% -->
    <g transform="translate(452.084498 57.606105) scale(0.12 -0.12)">
     <defs>
      <path id="MicrosoftYaHei-37" d="M 3422 4463 
Q 2659 3131 2223 1998 
Q 1788 866 1684 0 
L 1047 0 
Q 1163 853 1594 1947 
Q 2025 3041 2747 4300 
L 347 4300 
L 347 4841 
L 3422 4841 
L 3422 4463 
z
" transform="scale(0.015625)"/>
     </defs>
     <use xlink:href="#MicrosoftYaHei-33"/>
     <use xlink:href="#MicrosoftYaHei-33" transform="translate(58.642578 0)"/>
     <use xlink:href="#MicrosoftYaHei-2e" transform="translate(117.285156 0)"/>
     <use xlink:href="#MicrosoftYaHei-38" transform="translate(141.357422 0)"/>
     <use xlink:href="#MicrosoftYaHei-37" transform="translate(200 0)"/>
     <use xlink:href="#MicrosoftYaHei-25" transform="translate(258.642578 0)"/>
    </g>
   </g>
   <g id="text_17">
    <!-- 22.92% -->
    <g transform="translate(634.509387 100.144607) scale(0.12 -0.12)">
     <use xlink:href="#MicrosoftYaHei-32"/>
     <use xlink:href="#MicrosoftYaHei-32" transform="translate(58.642578 0)"/>
     <use xlink:href="#MicrosoftYaHei-2e" transform="translate(117.285156 0)"/>
     <use xlink:href="#MicrosoftYaHei-39" transform="translate(141.357422 0)"/>
     <use xlink:href="#MicrosoftYaHei-32" transform="translate(200 0)"/>
     <use xlink:href="#MicrosoftYaHei-25" transform="translate(258.642578 0)"/>
    </g>
   </g>
   <g id="text_18">
    <!-- 5.39% -->
    <g transform="translate(729.24027 168.252057) scale(0.12 -0.12)">
     <use xlink:href="#MicrosoftYaHei-35"/>
     <use xlink:href="#MicrosoftYaHei-2e" transform="translate(58.642578 0)"/>
     <use xlink:href="#MicrosoftYaHei-33" transform="translate(82.714844 0)"/>
     <use xlink:href="#MicrosoftYaHei-39" transform="translate(141.357422 0)"/>
     <use xlink:href="#MicrosoftYaHei-25" transform="translate(200 0)"/>
    </g>
   </g>
  </g>
  <g id="legend_1">
   <g id="patch_13">
    <path d="M 302.74976 27.001641 
L 512.04976 27.001641 
Q 514.34976 27.001641 514.34976 24.701641 
L 514.34976 8.05 
Q 514.34976 5.75 512.04976 5.75 
L 302.74976 5.75 
Q 300.44976 5.75 300.44976 8.05 
L 300.44976 24.701641 
Q 300.44976 27.001641 302.74976 27.001641 
z
" style="fill: #ffffff; opacity: 0.8; stroke: #cccccc; stroke-linejoin: miter"/>
   </g>
   <g id="line2d_26">
    <path d="M 305.04976 15.517812 
L 316.54976 15.517812 
L 328.04976 15.517812 
" style="fill: none; stroke-dasharray: 5.55,2.4; stroke-dashoffset: 0; stroke: #222222; stroke-width: 1.5"/>
    <g>
     <use xlink:href="#m2b6ea7d233" x="316.54976" y="15.517812" style="fill: #222222; stroke: #222222; stroke-linejoin: miter"/>
    </g>
   </g>
   <g id="text_19">
    <!-- 联合模型：相同特征给出相同预测 -->
    <g transform="translate(337.24976 19.542812) scale(0.115 -0.115)">
     <defs>
      <path id="MicrosoftYaHei-8054" d="M 81 553 
Q 319 591 556 631 
L 556 4428 
L 150 4428 
L 150 4866 
L 2850 4866 
L 2850 4428 
L 2381 4428 
L 2381 953 
Q 2666 1006 2950 1059 
Q 2963 803 2994 622 
Q 2697 563 2381 500 
L 2381 -822 
L 1925 -822 
L 1925 406 
Q 1122 244 200 53 
L 81 553 
z
M 2600 2397 
L 4044 2397 
Q 4069 2853 4066 3528 
L 2775 3528 
L 2775 3991 
L 4463 3991 
Q 4744 4441 5200 5309 
L 5688 5078 
Q 5300 4475 4966 3991 
L 6013 3991 
L 6013 3528 
L 4550 3528 
Q 4550 2850 4528 2397 
L 6225 2397 
L 6225 1934 
L 4591 1934 
Q 5069 441 6313 -284 
Q 6088 -509 5913 -753 
Q 4803 88 4350 1353 
Q 4006 13 2831 -816 
Q 2638 -572 2481 -409 
Q 3784 413 4006 1934 
L 2600 1934 
L 2600 2397 
z
M 1925 869 
L 1925 1753 
L 1013 1753 
L 1013 709 
Q 1472 788 1925 869 
z
M 1013 2178 
L 1925 2178 
L 1925 3091 
L 1013 3091 
L 1013 2178 
z
M 1013 3516 
L 1925 3516 
L 1925 4428 
L 1013 4428 
L 1013 3516 
z
M 3013 5053 
L 3375 5309 
Q 3750 4884 4081 4378 
L 3675 4097 
Q 3413 4528 3013 5053 
z
" transform="scale(0.015625)"/>
      <path id="MicrosoftYaHei-5408" d="M 1025 1909 
L 5381 1909 
L 5381 -866 
L 4881 -866 
L 4881 -447 
L 1525 -447 
L 1525 -878 
L 1025 -878 
L 1025 1909 
z
M 3700 5234 
L 3550 5053 
Q 4594 3697 6319 3009 
Q 6125 2734 5988 2509 
Q 5481 2753 5025 3059 
L 5025 2703 
L 1369 2703 
L 1369 3016 
Q 913 2716 394 2428 
Q 269 2641 81 2897 
Q 2013 3866 3000 5234 
L 3700 5234 
z
M 4881 1453 
L 1525 1453 
L 1525 -3 
L 4881 -3 
L 4881 1453 
z
M 3219 4691 
Q 2581 3872 1550 3147 
L 4894 3147 
Q 3944 3797 3219 4691 
z
" transform="scale(0.015625)"/>
      <path id="MicrosoftYaHei-6a21" d="M 2050 984 
L 3859 984 
Q 3900 1213 3913 1547 
L 2950 1547 
L 2950 1372 
L 2500 1372 
L 2500 3634 
L 5844 3634 
L 5844 1372 
L 5394 1372 
L 5394 1547 
L 4344 1547 
Q 4325 1203 4288 984 
L 6250 984 
L 6250 584 
L 4525 584 
Q 5203 -175 6319 -341 
Q 6144 -572 6013 -809 
Q 4803 -456 4128 466 
Q 3681 -431 2075 -847 
Q 1969 -628 1831 -416 
Q 3303 -106 3713 584 
L 2050 584 
L 2050 984 
z
M 63 1409 
Q 603 2316 922 3509 
L 138 3509 
L 138 3922 
L 1006 3922 
L 1006 5309 
L 1444 5309 
L 1444 3922 
L 2256 3922 
L 2256 3509 
L 1444 3509 
L 1444 2684 
L 1688 2884 
Q 2044 2503 2350 2116 
L 2006 1828 
Q 1719 2244 1444 2563 
L 1444 -822 
L 1006 -822 
L 1006 2581 
Q 672 1438 275 859 
Q 188 1128 63 1409 
z
M 4713 5303 
L 5150 5303 
L 5150 4703 
L 6225 4703 
L 6225 4303 
L 5150 4303 
L 5150 3797 
L 4713 3797 
L 4713 4303 
L 3600 4303 
L 3600 3797 
L 3163 3797 
L 3163 4303 
L 2175 4303 
L 2175 4703 
L 3163 4703 
L 3163 5309 
L 3600 5309 
L 3600 4703 
L 4713 4703 
L 4713 5303 
z
M 5394 3247 
L 2950 3247 
L 2950 2778 
L 5394 2778 
L 5394 3247 
z
M 2950 1934 
L 5394 1934 
L 5394 2403 
L 2950 2403 
L 2950 1934 
z
" transform="scale(0.015625)"/>
      <path id="MicrosoftYaHei-578b" d="M 150 3503 
L 1100 3503 
Q 1106 3638 1106 4547 
L 413 4547 
L 413 4959 
L 3675 4959 
L 3675 4547 
L 2994 4547 
L 2994 3503 
L 3881 3503 
L 3881 3091 
L 2994 3091 
L 2994 1747 
L 2538 1747 
L 2538 3091 
L 1528 3091 
Q 1450 2191 638 1534 
Q 475 1716 294 1897 
Q 1013 2453 1066 3091 
L 150 3091 
L 150 3503 
z
M 138 -103 
L 2938 -103 
L 2938 741 
L 706 741 
L 706 1172 
L 2938 1172 
L 2938 1659 
L 3425 1659 
L 3425 1172 
L 5713 1172 
L 5713 741 
L 3425 741 
L 3425 -103 
L 6256 -103 
L 6256 -534 
L 138 -534 
L 138 -103 
z
M 5856 5209 
L 5856 2334 
Q 5856 1672 5200 1659 
Q 4825 1647 4331 1659 
Q 4306 1897 4256 2153 
Q 4781 2122 5044 2122 
Q 5400 2122 5400 2516 
L 5400 5209 
L 5856 5209 
z
M 1556 3503 
L 2538 3503 
L 2538 4547 
L 1563 4547 
Q 1563 3791 1556 3503 
z
M 4138 4859 
L 4588 4859 
L 4588 2697 
L 4138 2697 
L 4138 4859 
z
" transform="scale(0.015625)"/>
      <path id="MicrosoftYaHei-ff1a" d="M 1606 3531 
Q 1772 3531 1890 3415 
Q 2009 3300 2009 3138 
Q 2009 2975 1893 2858 
Q 1778 2741 1606 2741 
Q 1434 2741 1318 2858 
Q 1203 2975 1203 3138 
Q 1203 3300 1322 3415 
Q 1441 3531 1606 3531 
z
M 1606 716 
Q 1772 716 1890 600 
Q 2009 484 2009 319 
Q 2009 150 1890 36 
Q 1772 -78 1606 -78 
Q 1441 -78 1322 36 
Q 1203 150 1203 319 
Q 1203 484 1322 600 
Q 1441 716 1606 716 
z
" transform="scale(0.015625)"/>
      <path id="MicrosoftYaHei-76f8" d="M 2738 4891 
L 6025 4891 
L 6025 -822 
L 5550 -822 
L 5550 -397 
L 3213 -397 
L 3213 -822 
L 2738 -822 
L 2738 4891 
z
M 94 1409 
Q 784 2372 1128 3622 
L 169 3622 
L 169 4041 
L 1138 4041 
L 1138 5284 
L 1594 5284 
L 1594 4041 
L 2506 4041 
L 2506 3622 
L 1594 3622 
L 1594 2534 
L 1844 2791 
Q 2275 2372 2638 1984 
L 2300 1653 
Q 1956 2059 1594 2444 
L 1594 -809 
L 1138 -809 
L 1138 2444 
Q 800 1516 319 866 
Q 225 1134 94 1409 
z
M 3213 28 
L 5550 28 
L 5550 1241 
L 3213 1241 
L 3213 28 
z
M 5550 4466 
L 3213 4466 
L 3213 3266 
L 5550 3266 
L 5550 4466 
z
M 3213 1653 
L 5550 1653 
L 5550 2853 
L 3213 2853 
L 3213 1653 
z
" transform="scale(0.015625)"/>
      <path id="MicrosoftYaHei-540c" d="M 1013 -772 
L 531 -772 
L 531 4959 
L 5856 4959 
L 5856 -47 
Q 5856 -741 5125 -741 
Q 4669 -741 4088 -716 
Q 4056 -497 4000 -216 
Q 4619 -272 5025 -272 
Q 5375 -272 5375 78 
L 5375 4497 
L 1013 4497 
L 1013 -772 
z
M 1875 2566 
L 4506 2566 
L 4506 597 
L 2338 597 
L 2338 272 
L 1875 272 
L 1875 2566 
z
M 4044 2116 
L 2338 2116 
L 2338 1047 
L 4044 1047 
L 4044 2116 
z
M 1363 3734 
L 5025 3734 
L 5025 3284 
L 1363 3284 
L 1363 3734 
z
" transform="scale(0.015625)"/>
      <path id="MicrosoftYaHei-7279" d="M 81 1609 
Q 666 1806 1238 2003 
L 1238 3472 
L 744 3472 
Q 616 2878 431 2384 
Q 238 2522 19 2659 
Q 369 3484 475 4716 
L 925 4641 
Q 884 4250 822 3891 
L 1238 3891 
L 1238 5291 
L 1706 5291 
L 1706 3891 
L 2488 3891 
L 2488 3472 
L 1706 3472 
L 1706 2166 
Q 2059 2291 2406 2416 
Q 2438 2141 2475 1941 
Q 2113 1813 1706 1663 
L 1706 -828 
L 1238 -828 
L 1238 1488 
Q 734 1297 175 1078 
L 81 1609 
z
M 2263 3103 
L 3981 3103 
L 3981 4028 
L 2525 4028 
L 2525 4453 
L 3981 4453 
L 3981 5322 
L 4469 5322 
L 4469 4453 
L 5988 4453 
L 5988 4028 
L 4469 4028 
L 4469 3103 
L 6275 3103 
L 6275 2678 
L 2263 2678 
L 2263 3103 
z
M 2394 1834 
L 4906 1834 
L 4906 2497 
L 5394 2497 
L 5394 1834 
L 6306 1834 
L 6306 1409 
L 5394 1409 
L 5394 34 
Q 5394 -747 4606 -753 
Q 4325 -759 3756 -747 
Q 3719 -503 3663 -209 
Q 4156 -259 4513 -259 
Q 4906 -259 4906 178 
L 4906 1409 
L 2394 1409 
L 2394 1834 
z
M 2744 978 
L 3106 1266 
Q 3556 772 3881 366 
L 3481 59 
Q 3125 541 2744 978 
z
" transform="scale(0.015625)"/>
      <path id="MicrosoftYaHei-5f81" d="M 2013 -59 
L 2656 -59 
L 2656 3141 
L 3144 3141 
L 3144 -59 
L 4231 -59 
L 4231 4453 
L 2438 4453 
L 2438 4922 
L 6175 4922 
L 6175 4453 
L 4719 4453 
L 4719 2559 
L 6050 2559 
L 6050 2097 
L 4719 2097 
L 4719 -59 
L 6269 -59 
L 6269 -522 
L 2013 -522 
L 2013 -59 
z
M 94 1578 
Q 1069 2372 1856 3809 
L 2294 3541 
Q 1975 2991 1619 2506 
L 1619 -816 
L 1100 -816 
L 1100 1863 
Q 725 1434 313 1072 
Q 213 1334 94 1578 
z
M 231 3766 
Q 1225 4503 1656 5222 
L 2106 4947 
Q 1456 4053 481 3284 
Q 369 3522 231 3766 
z
" transform="scale(0.015625)"/>
      <path id="MicrosoftYaHei-7ed9" d="M 2538 1791 
L 5700 1791 
L 5700 -853 
L 5225 -853 
L 5225 -434 
L 3013 -434 
L 3013 -859 
L 2538 -859 
L 2538 1791 
z
M 856 1572 
Q 881 1572 2150 1672 
Q 2119 1478 2094 1266 
Q 1050 1172 313 1091 
L 213 1491 
Q 588 1847 1156 2803 
Q 763 2778 213 2734 
L 81 3128 
Q 619 3741 1256 5278 
L 1750 5103 
Q 1138 3922 625 3166 
Q 1000 3172 1369 3178 
Q 1594 3566 1838 4034 
L 2306 3834 
Q 1431 2384 856 1572 
z
M 5225 1359 
L 3013 1359 
L 3013 -3 
L 5225 -3 
L 5225 1359 
z
M 4475 5278 
L 4344 5066 
Q 5075 3872 6350 3091 
Q 6169 2903 5988 2684 
Q 4763 3553 4081 4641 
Q 3400 3491 2313 2603 
Q 2194 2741 1950 2953 
Q 3213 3916 3919 5278 
L 4475 5278 
z
M 2750 2959 
L 5488 2959 
L 5488 2528 
L 2750 2528 
L 2750 2959 
z
M 106 122 
Q 1269 341 2194 553 
Q 2188 322 2200 109 
Q 925 -159 269 -341 
L 106 122 
z
" transform="scale(0.015625)"/>
      <path id="MicrosoftYaHei-51fa" d="M 5100 2172 
L 5100 2403 
L 3456 2403 
L 3456 -47 
L 5288 -47 
L 5288 1734 
L 5813 1734 
L 5813 -747 
L 5288 -747 
L 5288 -522 
L 588 -522 
L 588 1734 
L 1119 1734 
L 1119 -47 
L 2913 -47 
L 2913 2403 
L 756 2403 
L 756 4647 
L 1288 4647 
L 1288 2878 
L 2913 2878 
L 2913 5222 
L 3456 5222 
L 3456 2878 
L 5100 2878 
L 5100 4647 
L 5631 4647 
L 5631 2172 
L 5100 2172 
z
" transform="scale(0.015625)"/>
      <path id="MicrosoftYaHei-9884" d="M 531 3872 
L 844 4147 
Q 1069 3947 1275 3747 
L 1938 4553 
L 175 4553 
L 175 4991 
L 2513 4991 
L 2513 4553 
L 1588 3434 
Q 1694 3322 1794 3216 
L 1544 2997 
L 2681 2997 
L 2681 2578 
Q 2581 2097 2369 1466 
Q 2175 1534 1938 1609 
Q 2094 2003 2213 2559 
L 1588 2559 
L 1588 -72 
Q 1588 -784 888 -784 
L 225 -784 
Q 194 -559 138 -278 
Q 450 -316 769 -316 
Q 1119 -316 1119 84 
L 1119 2559 
L 113 2559 
L 113 2997 
L 1344 2997 
Q 938 3484 531 3872 
z
M 2969 3716 
L 4025 3716 
L 4181 4572 
L 2744 4572 
L 2744 5009 
L 6294 5009 
L 6294 4572 
L 4688 4572 
L 4506 3716 
L 6006 3716 
L 6006 641 
L 5550 641 
L 5550 3284 
L 3425 3284 
L 3425 641 
L 2969 641 
L 2969 3716 
z
M 4244 3028 
L 4706 3028 
L 4706 2097 
Q 4706 1366 4519 841 
Q 5500 184 6306 -441 
L 5963 -847 
Q 5200 -197 4325 428 
Q 4263 334 4200 247 
Q 3694 -397 2613 -897 
Q 2413 -641 2263 -484 
Q 3381 -22 3831 572 
Q 4244 1109 4244 2128 
L 4244 3028 
z
" transform="scale(0.015625)"/>
      <path id="MicrosoftYaHei-6d4b" d="M 875 1753 
Q 1175 1597 1369 1522 
Q 950 -41 763 -784 
L 250 -547 
Q 619 497 875 1753 
z
M 638 5166 
Q 1019 4847 1588 4303 
Q 1381 4103 1213 3928 
Q 756 4434 313 4853 
L 638 5166 
z
M 356 3559 
Q 881 3134 1350 2716 
Q 1188 2547 988 2322 
Q 425 2878 50 3216 
L 356 3559 
z
M 5575 5284 
L 6031 5284 
L 6031 -34 
Q 6031 -753 5338 -753 
Q 5038 -753 4625 -741 
Q 4600 -509 4538 -228 
Q 4938 -272 5219 -272 
Q 5575 -272 5575 84 
L 5575 5284 
z
M 5038 634 
L 4600 634 
L 4600 4778 
L 5038 4778 
L 5038 634 
z
M 1706 4941 
L 4063 4941 
L 4063 991 
L 3613 991 
L 3613 4503 
L 2156 4503 
L 2156 991 
L 1706 991 
L 1706 4941 
z
M 2681 3966 
L 3138 3966 
L 3138 2416 
Q 3138 1466 2963 891 
Q 3775 266 4375 -234 
L 4038 -616 
Q 3538 -141 2800 472 
Q 2413 -297 1406 -884 
Q 1269 -684 1100 -484 
Q 2031 53 2375 709 
Q 2681 1278 2681 2403 
L 2681 3966 
z
" transform="scale(0.015625)"/>
     </defs>
     <use xlink:href="#MicrosoftYaHei-8054"/>
     <use xlink:href="#MicrosoftYaHei-5408" transform="translate(100 0)"/>
     <use xlink:href="#MicrosoftYaHei-6a21" transform="translate(200 0)"/>
     <use xlink:href="#MicrosoftYaHei-578b" transform="translate(300 0)"/>
     <use xlink:href="#MicrosoftYaHei-ff1a" transform="translate(400 0)"/>
     <use xlink:href="#MicrosoftYaHei-76f8" transform="translate(500 0)"/>
     <use xlink:href="#MicrosoftYaHei-540c" transform="translate(600 0)"/>
     <use xlink:href="#MicrosoftYaHei-7279" transform="translate(700 0)"/>
     <use xlink:href="#MicrosoftYaHei-5f81" transform="translate(800 0)"/>
     <use xlink:href="#MicrosoftYaHei-7ed9" transform="translate(900 0)"/>
     <use xlink:href="#MicrosoftYaHei-51fa" transform="translate(1000 0)"/>
     <use xlink:href="#MicrosoftYaHei-76f8" transform="translate(1100 0)"/>
     <use xlink:href="#MicrosoftYaHei-540c" transform="translate(1200 0)"/>
     <use xlink:href="#MicrosoftYaHei-9884" transform="translate(1300 0)"/>
     <use xlink:href="#MicrosoftYaHei-6d4b" transform="translate(1400 0)"/>
    </g>
   </g>
  </g>
 </g>
 <defs>
  <clipPath id="p929b9b44b4">
   <rect x="47.070156" y="36.898298" width="760.529364" height="155.409618"/>
  </clipPath>
 </defs>
</svg>
